<svg width="64" height="64" viewBox="0 0 64 64" fill="none" xmlns="http://www.w3.org/2000/svg">
<g filter="url(#filter0_d_2227_3522)">
<rect x="10" y="3" width="44" height="44" rx="22" fill="white"/>
<path d="M29 25L31 27L35.5 22.5M27.3338 16.8187C28.1376 16.7545 28.9007 16.4385 29.5145 15.9154C30.9467 14.6949 33.0533 14.6949 34.4855 15.9154C35.0993 16.4385 35.8624 16.7545 36.6662 16.8187C38.5421 16.9684 40.0316 18.4579 40.1813 20.3338C40.2455 21.1376 40.5615 21.9007 41.0846 22.5145C42.3051 23.9467 42.3051 26.0533 41.0846 27.4855C40.5615 28.0993 40.2455 28.8624 40.1813 29.6662C40.0316 31.5421 38.5421 33.0316 36.6662 33.1813C35.8624 33.2455 35.0993 33.5615 34.4855 34.0846C33.0533 35.3051 30.9467 35.3051 29.5145 34.0846C28.9007 33.5615 28.1376 33.2455 27.3338 33.1813C25.4579 33.0316 23.9684 31.5421 23.8187 29.6662C23.7545 28.8624 23.4385 28.0993 22.9154 27.4855C21.6949 26.0533 21.6949 23.9467 22.9154 22.5145C23.4385 21.9007 23.7545 21.1376 23.8187 20.3338C23.9684 18.4579 25.4579 16.9684 27.3338 16.8187Z" stroke="#F3A753" stroke-width="2" stroke-linecap="round" stroke-linejoin="round"/>
</g>
<defs>
<filter id="filter0_d_2227_3522" x="0" y="0" width="64" height="64" filterUnits="userSpaceOnUse" color-interpolation-filters="sRGB">
<feFlood flood-opacity="0" result="BackgroundImageFix"/>
<feColorMatrix in="SourceAlpha" type="matrix" values="0 0 0 0 0 0 0 0 0 0 0 0 0 0 0 0 0 0 127 0" result="hardAlpha"/>
<feOffset dy="7"/>
<feGaussianBlur stdDeviation="5"/>
<feColorMatrix type="matrix" values="0 0 0 0 0.0645066 0 0 0 0 0.133341 0 0 0 0 0.26696 0 0 0 0.08 0"/>
<feBlend mode="normal" in2="BackgroundImageFix" result="effect1_dropShadow_2227_3522"/>
<feBlend mode="normal" in="SourceGraphic" in2="effect1_dropShadow_2227_3522" result="shape"/>
</filter>
</defs>
</svg>
