<svg width="141" height="37" viewBox="0 0 141 37" fill="none" xmlns="http://www.w3.org/2000/svg">
<path d="M19.4041 8.00954L19.5834 8.01851L19.6461 8.18581C21.5342 13.4499 17.997 20.2525 13.2348 22.8248C13.7039 23.2401 14.8093 23.9122 15.0632 23.9063C19.5385 21.101 22.3797 16.5599 22.2482 11.2212C22.2154 10.6924 22.1765 10.1666 22.1168 9.64672C22.0212 8.98348 21.6059 6.74282 21.2086 6.1483C15.4396 4.96524 10.4654 6.76971 5.94223 10.3727C5.8287 11.3526 5.75401 12.3385 5.73608 13.3274C9.87981 9.60191 13.6202 7.8034 19.4041 8.00954Z" fill="#001F71"/>
<path d="M30.3146 10.0948C28.2263 8.75643 25.9916 7.58232 23.6315 6.7966C23.8286 7.31344 23.9959 7.84522 24.1393 8.37999L24.0766 8.37103C24.1154 8.38597 24.1393 8.40987 24.1543 8.43676L24.1782 8.53535C24.1871 8.61004 24.1842 8.69667 24.2349 8.7624V8.76539C25.4449 14.9167 21.8539 22.762 16.6914 25.6211C16.9961 26.0722 18.7498 27.0432 19.0247 26.84C26.0992 21.567 26.7266 15.583 26.625 10.4235C27.1359 10.6953 27.6407 10.9792 28.1367 11.2749L28.2592 11.3496L28.2681 11.49C28.7611 19.7536 25.4718 25.2686 18.0029 28.8387L17.8864 28.8925L17.7699 28.8357C15.2454 27.5899 12.9121 26.0215 11.1525 23.9033C11.5319 21.4266 14.2625 18.0686 16.9453 17.9461C17.6355 16.9901 17.7042 16.8497 18.1404 15.7652C14.2058 15.4694 10.9822 18.4869 9.58701 21.567C9.17473 22.3766 8.8461 23.2221 8.60112 24.1005C10.8657 27.4226 14.2595 29.6214 17.8685 31.2616C27.3778 27.1239 31.3154 20.2615 30.3146 10.0948Z" fill="#001F71"/>
<path d="M18.6273 13.1869C18.8006 12.3863 18.8305 11.7499 18.7917 10.9373C18.478 10.9284 18.1613 10.9313 17.8506 10.9373C15.3112 10.9971 13.0526 11.3705 10.8269 12.6552C9.90371 13.1869 9.05226 13.8352 8.25757 14.5373C7.7467 14.9884 6.10056 16.8078 5.96911 17.3307C6.0199 18.2 6.42023 19.6281 6.81459 20.6618C8.57126 15.4694 13.193 12.924 18.6273 13.1869Z" fill="#001F71"/>
<path d="M45.4451 13.7268H42.1036V23.2739H45.4451C46.4237 23.2739 47.2232 23.071 47.8319 22.6533C48.4285 22.2476 48.882 21.6748 49.1684 20.9349C49.4549 20.2069 49.5981 19.3954 49.5981 18.5004C49.5981 17.6411 49.4549 16.8535 49.1684 16.1136C48.882 15.3856 48.4285 14.8128 47.8319 14.3951C47.2232 13.9536 46.4237 13.7268 45.4451 13.7268ZM38.1416 11.4355H45.827C47.3545 11.4355 48.6076 11.7578 49.5981 12.3903C50.5766 13.0347 51.3165 13.8939 51.7939 14.968C52.2712 16.0181 52.5099 17.1996 52.5099 18.5004C52.5099 19.8131 52.2712 21.0065 51.7939 22.0805C51.3165 23.1665 50.5766 24.0257 49.5981 24.6582C48.6076 25.3026 47.3545 25.6129 45.827 25.6129H38.1416V23.2739H39.144V13.7268H38.1416V11.4355Z" fill="#001F71"/>
<path d="M61.6572 13.4643C60.6309 13.4643 59.8075 13.7029 59.175 14.1803C58.5664 14.6338 58.1248 15.2305 57.8384 15.9942C57.552 16.758 57.4088 17.6053 57.4088 18.5242C57.4088 19.4789 57.552 20.3381 57.8384 21.1019C58.1248 21.8657 58.5664 22.4862 59.175 22.9636C59.8075 23.4171 60.6309 23.6319 61.6572 23.6319C62.6716 23.6319 63.495 23.4171 64.1395 22.9636C64.772 22.4862 65.2135 21.8657 65.4761 21.1019C65.7625 20.3381 65.9057 19.4789 65.9057 18.5242C65.9057 17.6053 65.7625 16.758 65.4761 15.9942C65.2135 15.2305 64.772 14.6338 64.1395 14.1803C63.495 13.7029 62.6716 13.4643 61.6572 13.4643ZM61.6572 11.1252C63.3041 11.1252 64.6646 11.4594 65.7147 12.1277C66.7649 12.796 67.5406 13.691 68.0538 14.8009C68.5908 15.9226 68.8653 17.1638 68.8653 18.5242C68.8653 19.8966 68.5908 21.1377 68.0538 22.2476C67.5406 23.3693 66.7649 24.2524 65.7147 24.9207C64.6646 25.589 63.3041 25.9232 61.6572 25.9232C60.0342 25.9232 58.6738 25.589 57.5997 24.9207C56.5496 24.2524 55.75 23.3693 55.213 22.2476C54.6998 21.1377 54.4492 19.8966 54.4492 18.5242C54.4492 17.1638 54.6998 15.9226 55.213 14.8009C55.75 13.691 56.5496 12.796 57.5997 12.1277C58.6738 11.4594 60.0342 11.1252 61.6572 11.1252Z" fill="#001F71"/>
<path d="M84.1706 23.25C84.1706 23.25 84.0512 23.3932 83.8364 23.6796C83.6097 23.9422 83.2397 24.2405 82.7385 24.5866C82.2611 24.9446 81.6167 25.2549 80.8291 25.5413C80.0295 25.7919 79.0868 25.9232 78.0127 25.9232C76.3897 25.9232 75.0293 25.589 73.9552 24.9207C72.905 24.2524 72.1055 23.3693 71.5685 22.2476C71.0553 21.1377 70.8047 19.8966 70.8047 18.5242C70.8047 17.1638 71.0553 15.9226 71.5685 14.8009C72.1055 13.691 72.905 12.796 73.9552 12.1277C75.0293 11.4594 76.3897 11.1252 78.0127 11.1252C79.0271 11.1252 79.8982 11.2684 80.6381 11.5549C81.3661 11.8174 81.9509 12.1277 82.4043 12.5096C82.8817 12.8676 83.2278 13.1779 83.4545 13.4643C83.6693 13.7268 83.7887 13.8462 83.7887 13.8462V16.1374H81.5928L81.2587 14.2758C80.9007 14.0848 80.4711 13.9178 79.9699 13.7507C79.4925 13.5597 78.9197 13.4643 78.2514 13.4643C77.2251 13.4643 76.3897 13.7029 75.7214 14.1803C75.0531 14.6338 74.54 15.2305 74.1939 15.9942C73.8717 16.758 73.7165 17.6053 73.7165 18.5242C73.7165 19.4789 73.8836 20.3381 74.2416 21.1019C74.5877 21.8657 75.1128 22.4862 75.8169 22.9636C76.5448 23.4171 77.4399 23.6319 78.4901 23.6319C79.218 23.6319 79.8744 23.5245 80.4472 23.2977C81.0439 23.0829 81.5451 22.8204 81.927 22.534C82.3089 22.2237 82.5953 21.9492 82.7862 21.7225C83.001 21.5077 83.1204 21.3883 83.1204 21.3883L84.1706 23.25Z" fill="#001F71"/>
<path d="M93.3181 23.4647C94.2967 23.4647 95.0843 23.2141 95.6572 22.701C96.2538 22.1639 96.5641 21.4598 96.5641 20.6006V13.5835H95.5617V11.2922H100.478V13.5835H99.5237V20.6006C99.5237 21.6269 99.2492 22.51 98.7122 23.2738C98.1991 24.0375 97.483 24.6462 96.5641 25.0877C95.6333 25.5293 94.5592 25.756 93.3181 25.756C92.077 25.756 90.991 25.5412 90.0721 25.1355C89.1413 24.7297 88.4133 24.133 87.8763 23.3693C87.3632 22.5816 87.1125 21.6508 87.1125 20.6006V13.5835H86.1101V11.2922H91.0746V13.5835H90.0721V20.6006C90.0721 21.4598 90.3585 22.1639 90.9314 22.701C91.5281 23.2141 92.3276 23.4647 93.3181 23.4647Z" fill="#001F71"/>
<path d="M102.418 11.4355H107.382V13.7268H106.38V23.2739H111.392L111.535 22.176H113.588V25.6129H102.418V23.2739H103.42V13.7268H102.418V11.4355Z" fill="#001F71"/>
<path d="M115.527 11.4355H126.697V14.8725H124.645L124.501 13.7268H119.489V17.3547H123.642V19.646H119.489V23.2739H124.501L124.645 22.176H126.697V25.6129H115.527V23.2739H116.53V13.7268H115.527V11.4355Z" fill="#001F71"/>
<path d="M128.636 11.4355H141V15.1589H138.804L138.661 13.7268H136.274V23.2739H137.277V25.6129H132.312V23.2739H133.315V13.7268H130.88L130.785 15.1589H128.636V11.4355Z" fill="#001F71"/>
</svg>
