<svg width="141" height="38" viewBox="0 0 141 38" fill="none" xmlns="http://www.w3.org/2000/svg">
<path d="M19.4041 8.11324L19.5834 8.12221L19.6461 8.28951C21.5342 13.5536 17.997 20.3562 13.2348 22.9285C13.7039 23.3438 14.8093 24.0159 15.0632 24.01C19.5385 21.2047 22.3797 16.6636 22.2482 11.3249C22.2154 10.7961 22.1765 10.2703 22.1168 9.75042C22.0212 9.08718 21.6059 6.84652 21.2086 6.252C15.4396 5.06893 10.4654 6.87341 5.94223 10.4764C5.8287 11.4563 5.75401 12.4422 5.73608 13.4311C9.87981 9.7056 13.6202 7.9071 19.4041 8.11324Z" fill="white"/>
<path d="M30.3146 10.1985C28.2263 8.86012 25.9916 7.68602 23.6315 6.9003C23.8286 7.41714 23.9959 7.94892 24.1393 8.48369L24.0766 8.47473C24.1154 8.48967 24.1393 8.51357 24.1543 8.54046L24.1782 8.63905C24.1871 8.71373 24.1842 8.80037 24.2349 8.8661V8.86909C25.4449 15.0204 21.8539 22.8657 16.6914 25.7248C16.9961 26.1759 18.7498 27.1469 19.0247 26.9437C26.0992 21.6707 26.7266 15.6867 26.625 10.5272C27.1359 10.799 27.6407 11.0829 28.1367 11.3786L28.2592 11.4533L28.2681 11.5937C28.7611 19.8573 25.4718 25.3723 18.0029 28.9424L17.8864 28.9962L17.7699 28.9394C15.2454 27.6936 12.9121 26.1251 11.1525 24.007C11.5319 21.5303 14.2625 18.1723 16.9453 18.0498C17.6355 17.0938 17.7042 16.9534 18.1404 15.8689C14.2058 15.5731 10.9822 18.5906 9.58701 21.6707C9.17473 22.4803 8.8461 23.3258 8.60112 24.2042C10.8657 27.5263 14.2595 29.7251 17.8685 31.3653C27.3778 27.2276 31.3154 20.3652 30.3146 10.1985Z" fill="white"/>
<path d="M18.6273 13.2906C18.8006 12.49 18.8305 11.8536 18.7917 11.041C18.478 11.0321 18.1613 11.035 17.8506 11.041C15.3112 11.1008 13.0526 11.4742 10.8269 12.7589C9.90371 13.2906 9.05226 13.9389 8.25757 14.641C7.7467 15.0921 6.10056 16.9115 5.96911 17.4344C6.0199 18.3037 6.42023 19.7318 6.81459 20.7655C8.57126 15.5731 13.193 13.0277 18.6273 13.2906Z" fill="white"/>
<path d="M45.4451 13.8307H42.1036V23.3777H45.4451C46.4237 23.3777 47.2232 23.1748 47.8319 22.7571C48.4285 22.3514 48.882 21.7786 49.1684 21.0387C49.4549 20.3107 49.5981 19.4992 49.5981 18.6042C49.5981 17.7449 49.4549 16.9573 49.1684 16.2174C48.882 15.4895 48.4285 14.9166 47.8319 14.499C47.2232 14.0574 46.4237 13.8307 45.4451 13.8307ZM38.1416 11.5394H45.827C47.3545 11.5394 48.6076 11.8616 49.5981 12.4941C50.5766 13.1385 51.3165 13.9977 51.7939 15.0718C52.2712 16.122 52.5099 17.3034 52.5099 18.6042C52.5099 19.9169 52.2712 21.1103 51.7939 22.1843C51.3165 23.2703 50.5766 24.1295 49.5981 24.762C48.6076 25.4065 47.3545 25.7167 45.827 25.7167H38.1416V23.3777H39.144V13.8307H38.1416V11.5394Z" fill="white"/>
<path d="M61.6572 13.5682C60.6309 13.5682 59.8075 13.8068 59.175 14.2842C58.5664 14.7377 58.1248 15.3344 57.8384 16.0981C57.552 16.8619 57.4088 17.7092 57.4088 18.6281C57.4088 19.5828 57.552 20.442 57.8384 21.2058C58.1248 21.9696 58.5664 22.5901 59.175 23.0675C59.8075 23.521 60.6309 23.7358 61.6572 23.7358C62.6716 23.7358 63.495 23.521 64.1395 23.0675C64.772 22.5901 65.2135 21.9696 65.4761 21.2058C65.7625 20.442 65.9057 19.5828 65.9057 18.6281C65.9057 17.7092 65.7625 16.8619 65.4761 16.0981C65.2135 15.3344 64.772 14.7377 64.1395 14.2842C63.495 13.8068 62.6716 13.5682 61.6572 13.5682ZM61.6572 11.2291C63.3041 11.2291 64.6646 11.5633 65.7147 12.2316C66.7649 12.8999 67.5406 13.7949 68.0538 14.9047C68.5908 16.0265 68.8653 17.2676 68.8653 18.6281C68.8653 20.0005 68.5908 21.2416 68.0538 22.3514C67.5406 23.4732 66.7649 24.3563 65.7147 25.0246C64.6646 25.6929 63.3041 26.0271 61.6572 26.0271C60.0342 26.0271 58.6738 25.6929 57.5997 25.0246C56.5496 24.3563 55.75 23.4732 55.213 22.3514C54.6998 21.2416 54.4492 20.0005 54.4492 18.6281C54.4492 17.2676 54.6998 16.0265 55.213 14.9047C55.75 13.7949 56.5496 12.8999 57.5997 12.2316C58.6738 11.5633 60.0342 11.2291 61.6572 11.2291Z" fill="white"/>
<path d="M84.1706 23.3539C84.1706 23.3539 84.0512 23.4971 83.8364 23.7835C83.6097 24.046 83.2397 24.3444 82.7385 24.6905C82.2611 25.0485 81.6167 25.3588 80.8291 25.6452C80.0295 25.8958 79.0868 26.0271 78.0127 26.0271C76.3897 26.0271 75.0293 25.6929 73.9552 25.0246C72.905 24.3563 72.1055 23.4732 71.5685 22.3514C71.0553 21.2416 70.8047 20.0005 70.8047 18.6281C70.8047 17.2676 71.0553 16.0265 71.5685 14.9047C72.1055 13.7949 72.905 12.8999 73.9552 12.2316C75.0293 11.5633 76.3897 11.2291 78.0127 11.2291C79.0271 11.2291 79.8982 11.3723 80.6381 11.6587C81.3661 11.9213 81.9509 12.2316 82.4043 12.6134C82.8817 12.9715 83.2278 13.2817 83.4545 13.5682C83.6693 13.8307 83.7887 13.95 83.7887 13.95V16.2413H81.5928L81.2587 14.3797C80.9007 14.1887 80.4711 14.0216 79.9699 13.8546C79.4925 13.6636 78.9197 13.5682 78.2514 13.5682C77.2251 13.5682 76.3897 13.8068 75.7214 14.2842C75.0531 14.7377 74.54 15.3344 74.1939 16.0981C73.8717 16.8619 73.7165 17.7092 73.7165 18.6281C73.7165 19.5828 73.8836 20.442 74.2416 21.2058C74.5877 21.9696 75.1128 22.5901 75.8169 23.0675C76.5448 23.521 77.4399 23.7358 78.4901 23.7358C79.218 23.7358 79.8744 23.6284 80.4472 23.4016C81.0439 23.1868 81.5451 22.9243 81.927 22.6378C82.3089 22.3276 82.5953 22.0531 82.7862 21.8263C83.001 21.6115 83.1204 21.4922 83.1204 21.4922L84.1706 23.3539Z" fill="white"/>
<path d="M93.3181 23.5687C94.2967 23.5687 95.0843 23.3181 95.6572 22.8049C96.2538 22.2679 96.5641 21.5638 96.5641 20.7046V13.6875H95.5617V11.3962H100.478V13.6875H99.5237V20.7046C99.5237 21.7309 99.2492 22.614 98.7122 23.3777C98.1991 24.1415 97.483 24.7501 96.5641 25.1917C95.6333 25.6332 94.5592 25.86 93.3181 25.86C92.077 25.86 90.991 25.6451 90.0721 25.2394C89.1413 24.8336 88.4133 24.237 87.8763 23.4732C87.3632 22.6856 87.1125 21.7547 87.1125 20.7046V13.6875H86.1101V11.3962H91.0746V13.6875H90.0721V20.7046C90.0721 21.5638 90.3585 22.2679 90.9314 22.8049C91.5281 23.3181 92.3276 23.5687 93.3181 23.5687Z" fill="white"/>
<path d="M102.418 11.5394H107.382V13.8307H106.38V23.3777H111.392L111.535 22.2798H113.588V25.7167H102.418V23.3777H103.42V13.8307H102.418V11.5394Z" fill="white"/>
<path d="M115.527 11.5394H126.697V14.9763H124.645L124.501 13.8307H119.489V17.4585H123.642V19.7498H119.489V23.3777H124.501L124.645 22.2798H126.697V25.7167H115.527V23.3777H116.53V13.8307H115.527V11.5394Z" fill="white"/>
<path d="M128.636 11.5394H141V15.2627H138.804L138.661 13.8307H136.274V23.3777H137.277V25.7167H132.312V23.3777H133.315V13.8307H130.88L130.785 15.2627H128.636V11.5394Z" fill="white"/>
</svg>
