<svg width="64" height="64" viewBox="0 0 64 64" fill="none" xmlns="http://www.w3.org/2000/svg">
<g filter="url(#filter0_d_2227_3516)">
<rect x="10" y="3" width="44" height="44" rx="22" fill="white"/>
<path d="M36 17C36.93 17 37.395 17 37.7765 17.1022C38.8117 17.3796 39.6204 18.1883 39.8978 19.2235C40 19.605 40 20.07 40 21V30.2C40 31.8802 40 32.7202 39.673 33.362C39.3854 33.9265 38.9265 34.3854 38.362 34.673C37.7202 35 36.8802 35 35.2 35H28.8C27.1198 35 26.2798 35 25.638 34.673C25.0735 34.3854 24.6146 33.9265 24.327 33.362C24 32.7202 24 31.8802 24 30.2V21C24 20.07 24 19.605 24.1022 19.2235C24.3796 18.1883 25.1883 17.3796 26.2235 17.1022C26.605 17 27.07 17 28 17M29.6 19H34.4C34.9601 19 35.2401 19 35.454 18.891C35.6422 18.7951 35.7951 18.6422 35.891 18.454C36 18.2401 36 17.9601 36 17.4V16.6C36 16.0399 36 15.7599 35.891 15.546C35.7951 15.3578 35.6422 15.2049 35.454 15.109C35.2401 15 34.9601 15 34.4 15H29.6C29.0399 15 28.7599 15 28.546 15.109C28.3578 15.2049 28.2049 15.3578 28.109 15.546C28 15.7599 28 16.0399 28 16.6V17.4C28 17.9601 28 18.2401 28.109 18.454C28.2049 18.6422 28.3578 18.7951 28.546 18.891C28.7599 19 29.0399 19 29.6 19Z" stroke="#F3A753" stroke-width="2" stroke-linecap="round" stroke-linejoin="round"/>
</g>
<defs>
<filter id="filter0_d_2227_3516" x="0" y="0" width="64" height="64" filterUnits="userSpaceOnUse" color-interpolation-filters="sRGB">
<feFlood flood-opacity="0" result="BackgroundImageFix"/>
<feColorMatrix in="SourceAlpha" type="matrix" values="0 0 0 0 0 0 0 0 0 0 0 0 0 0 0 0 0 0 127 0" result="hardAlpha"/>
<feOffset dy="7"/>
<feGaussianBlur stdDeviation="5"/>
<feColorMatrix type="matrix" values="0 0 0 0 0.0645066 0 0 0 0 0.133341 0 0 0 0 0.26696 0 0 0 0.08 0"/>
<feBlend mode="normal" in2="BackgroundImageFix" result="effect1_dropShadow_2227_3516"/>
<feBlend mode="normal" in="SourceGraphic" in2="effect1_dropShadow_2227_3516" result="shape"/>
</filter>
</defs>
</svg>
