<svg width="104" height="104" viewBox="0 0 104 104" fill="none" xmlns="http://www.w3.org/2000/svg">
<g filter="url(#filter0_d_2227_3516)">
<rect x="30" y="20" width="44" height="44" rx="22" fill="white"/>
<path d="M54 41H53V37H55C55.2652 37 55.5196 37.1054 55.7071 37.2929C55.8946 37.4804 56 37.7348 56 38C56 38.2652 56.1054 38.5196 56.2929 38.7071C56.4804 38.8946 56.7348 39 57 39C57.2652 39 57.5196 38.8946 57.7071 38.7071C57.8946 38.5196 58 38.2652 58 38C58 37.2044 57.6839 36.4413 57.1213 35.8787C56.5587 35.3161 55.7956 35 55 35H53V33C53 32.7348 52.8946 32.4804 52.7071 32.2929C52.5196 32.1054 52.2652 32 52 32C51.7348 32 51.4804 32.1054 51.2929 32.2929C51.1054 32.4804 51 32.7348 51 33V35H50C48.9391 35 47.9217 35.4214 47.1716 36.1716C46.4214 36.9217 46 37.9391 46 39C46 40.0609 46.4214 41.0783 47.1716 41.8284C47.9217 42.5786 48.9391 43 50 43H51V47H49C48.7348 47 48.4804 46.8946 48.2929 46.7071C48.1054 46.5196 48 46.2652 48 46C48 45.7348 47.8946 45.4804 47.7071 45.2929C47.5196 45.1054 47.2652 45 47 45C46.7348 45 46.4804 45.1054 46.2929 45.2929C46.1054 45.4804 46 45.7348 46 46C46 46.7956 46.3161 47.5587 46.8787 48.1213C47.4413 48.6839 48.2044 49 49 49H51V51C51 51.2652 51.1054 51.5196 51.2929 51.7071C51.4804 51.8946 51.7348 52 52 52C52.2652 52 52.5196 51.8946 52.7071 51.7071C52.8946 51.5196 53 51.2652 53 51V49H54C55.0609 49 56.0783 48.5786 56.8284 47.8284C57.5786 47.0783 58 46.0609 58 45C58 43.9391 57.5786 42.9217 56.8284 42.1716C56.0783 41.4214 55.0609 41 54 41ZM51 41H50C49.4696 41 48.9609 40.7893 48.5858 40.4142C48.2107 40.0391 48 39.5304 48 39C48 38.4696 48.2107 37.9609 48.5858 37.5858C48.9609 37.2107 49.4696 37 50 37H51V41ZM54 47H53V43H54C54.5304 43 55.0391 43.2107 55.4142 43.5858C55.7893 43.9609 56 44.4696 56 45C56 45.5304 55.7893 46.0391 55.4142 46.4142C55.0391 46.7893 54.5304 47 54 47Z" fill="#BB8111"/>
</g>
<defs>
<filter id="filter0_d_2227_3516" x="0" y="0" width="104" height="104" filterUnits="userSpaceOnUse" color-interpolation-filters="sRGB">
<feFlood flood-opacity="0" result="BackgroundImageFix"/>
<feColorMatrix in="SourceAlpha" type="matrix" values="0 0 0 0 0 0 0 0 0 0 0 0 0 0 0 0 0 0 127 0" result="hardAlpha"/>
<feOffset dy="10"/>
<feGaussianBlur stdDeviation="15"/>
<feColorMatrix type="matrix" values="0 0 0 0 0.0645066 0 0 0 0 0.133341 0 0 0 0 0.26696 0 0 0 0.2 0"/>
<feBlend mode="normal" in2="BackgroundImageFix" result="effect1_dropShadow_2227_3516"/>
<feBlend mode="normal" in="SourceGraphic" in2="effect1_dropShadow_2227_3516" result="shape"/>
</filter>
</defs>
</svg>
