<svg width="96" height="96" viewBox="0 0 96 96" fill="none" xmlns="http://www.w3.org/2000/svg">
<g filter="url(#filter0_d_2227_3638)">
<rect x="27.9519" y="18.5867" width="40.2453" height="40.2453" rx="20.1227" fill="white"/>
<path d="M44.9553 40.0906L51.2024 43.7309M51.1933 33.6879L44.9553 37.3283M56.3063 32.3067C56.3063 33.8222 55.0778 35.0507 53.5623 35.0507C52.0468 35.0507 50.8183 33.8222 50.8183 32.3067C50.8183 30.7913 52.0468 29.5627 53.5623 29.5627C55.0778 29.5627 56.3063 30.7913 56.3063 32.3067ZM45.3303 38.7094C45.3303 40.2249 44.1018 41.4534 42.5863 41.4534C41.0708 41.4534 39.8423 40.2249 39.8423 38.7094C39.8423 37.1939 41.0708 35.9654 42.5863 35.9654C44.1018 35.9654 45.3303 37.1939 45.3303 38.7094ZM56.3063 45.1121C56.3063 46.6275 55.0778 47.8561 53.5623 47.8561C52.0468 47.8561 50.8183 46.6275 50.8183 45.1121C50.8183 43.5966 52.0468 42.3681 53.5623 42.3681C55.0778 42.3681 56.3063 43.5966 56.3063 45.1121Z" stroke="black" stroke-width="1.82933" stroke-linecap="round" stroke-linejoin="round"/>
</g>
<defs>
<filter id="filter0_d_2227_3638" x="0.511906" y="0.293338" width="95.1254" height="95.1254" filterUnits="userSpaceOnUse" color-interpolation-filters="sRGB">
<feFlood flood-opacity="0" result="BackgroundImageFix"/>
<feColorMatrix in="SourceAlpha" type="matrix" values="0 0 0 0 0 0 0 0 0 0 0 0 0 0 0 0 0 0 127 0" result="hardAlpha"/>
<feOffset dy="9.14667"/>
<feGaussianBlur stdDeviation="13.72"/>
<feColorMatrix type="matrix" values="0 0 0 0 0.0571591 0 0 0 0 0.186582 0 0 0 0 0.437815 0 0 0 0.2 0"/>
<feBlend mode="normal" in2="BackgroundImageFix" result="effect1_dropShadow_2227_3638"/>
<feBlend mode="normal" in="SourceGraphic" in2="effect1_dropShadow_2227_3638" result="shape"/>
</filter>
</defs>
</svg>
