<svg width="40" height="40" viewBox="0 0 96 96" fill="none" xmlns="http://www.w3.org/2000/svg">
<g filter="url(#filter0_d_2227_3638)">
<rect x="27.952" y="18.5867" width="40.2453" height="40.2453" rx="20.1227" fill="white"/>
<path d="M56.4436 30.3493C56.0941 29.9931 55.651 29.7431 55.1654 29.6282C54.6798 29.5133 54.1716 29.5381 53.6996 29.6999L40.7571 34.0263C40.2351 34.1972 39.779 34.5258 39.4518 34.967C39.1246 35.4081 38.9424 35.9399 38.9303 36.489C38.9183 37.0381 39.077 37.5774 39.3845 38.0325C39.6921 38.4876 40.1333 38.8359 40.6473 39.0295L45.4401 40.8589C45.5493 40.9006 45.6487 40.9644 45.7321 41.0462C45.8155 41.128 45.8811 41.2262 45.9249 41.3345L47.7543 46.1365C47.9405 46.6432 48.2784 47.0802 48.7219 47.3879C49.1655 47.6956 49.6932 47.8591 50.233 47.8561H50.297C50.8468 47.846 51.3796 47.6643 51.8208 47.3362C52.262 47.0082 52.5896 46.5503 52.7575 46.0267L57.0839 33.0659C57.2412 32.5984 57.2646 32.0963 57.1515 31.6162C57.0383 31.1362 56.7931 30.6973 56.4436 30.3493ZM55.3917 32.4897L51.0196 45.4596C50.9688 45.6238 50.8669 45.7674 50.7286 45.8694C50.5904 45.9715 50.4231 46.0266 50.2513 46.0267C50.0805 46.0295 49.9129 45.9803 49.7707 45.8855C49.6286 45.7907 49.5186 45.655 49.4555 45.4962L47.6262 40.6942C47.4936 40.3453 47.289 40.0282 47.0259 39.7634C46.7627 39.4987 46.4468 39.2923 46.0987 39.1576L41.2967 37.3282C41.1347 37.2689 40.9955 37.1601 40.8986 37.0173C40.8018 36.8745 40.7523 36.7049 40.7571 36.5325C40.7572 36.3607 40.8123 36.1934 40.9144 36.0551C41.0164 35.9169 41.16 35.8149 41.3241 35.7642L54.2941 31.4378C54.443 31.3771 54.6063 31.3608 54.7643 31.391C54.9222 31.4211 55.0681 31.4964 55.1842 31.6076C55.3003 31.7189 55.3817 31.8614 55.4185 32.0179C55.4553 32.1745 55.446 32.3383 55.3917 32.4897Z" fill="#1E5AE8"/>
</g>
<defs>
<filter id="filter0_d_2227_3638" x="0.512028" y="0.293338" width="95.1254" height="95.1254" filterUnits="userSpaceOnUse" color-interpolation-filters="sRGB">
<feFlood flood-opacity="0" result="BackgroundImageFix"/>
<feColorMatrix in="SourceAlpha" type="matrix" values="0 0 0 0 0 0 0 0 0 0 0 0 0 0 0 0 0 0 127 0" result="hardAlpha"/>
<feOffset dy="9.14667"/>
<feGaussianBlur stdDeviation="13.72"/>
<feColorMatrix type="matrix" values="0 0 0 0 0.0571591 0 0 0 0 0.186582 0 0 0 0 0.437815 0 0 0 0.2 0"/>
<feBlend mode="normal" in2="BackgroundImageFix" result="effect1_dropShadow_2227_3638"/>
<feBlend mode="normal" in="SourceGraphic" in2="effect1_dropShadow_2227_3638" result="shape"/>
</filter>
</defs>
</svg>
