<svg width="96" height="96" viewBox="0 0 96 96" fill="none" xmlns="http://www.w3.org/2000/svg">
<g filter="url(#filter0_d_2227_3570)">
<rect x="27.6718" y="18.5867" width="40.2453" height="40.2453" rx="20.1227" fill="white"/>
<path fill-rule="evenodd" clip-rule="evenodd" d="M50.9507 29.0164C51.9222 28.7389 52.9347 29.3014 53.2122 30.2728C53.2589 30.4362 53.2826 30.6054 53.2826 30.7754V41.6782C53.2826 42.4949 52.7412 43.2127 51.9558 43.4371L46.0935 45.1121H55.1122V37.7947H53.2828V35.9654H55.1122V34.1361H53.2828V32.3067H55.1122C56.1225 32.3067 56.9415 33.1258 56.9415 34.1361V45.1121C56.9415 46.1224 56.1225 46.9414 55.1122 46.9414H40.4775C39.4672 46.9414 38.6482 46.1224 38.6482 45.1121H38.6724C38.6561 45.0137 38.6479 44.9141 38.6479 44.8142V33.9114C38.6479 33.0946 39.1894 32.3768 39.9747 32.1524L50.9507 29.0164ZM40.4775 33.9113V44.8141L51.4535 41.6781V30.7753L40.4775 33.9113ZM49.6242 35.9654C49.6242 36.4706 49.2147 36.8801 48.7095 36.8801C48.2044 36.8801 47.7948 36.4706 47.7948 35.9654C47.7948 35.4602 48.2044 35.0507 48.7095 35.0507C49.2147 35.0507 49.6242 35.4602 49.6242 35.9654Z" fill="#169E00"/>
</g>
<defs>
<filter id="filter0_d_2227_3570" x="0.231754" y="0.293338" width="95.1254" height="95.1254" filterUnits="userSpaceOnUse" color-interpolation-filters="sRGB">
<feFlood flood-opacity="0" result="BackgroundImageFix"/>
<feColorMatrix in="SourceAlpha" type="matrix" values="0 0 0 0 0 0 0 0 0 0 0 0 0 0 0 0 0 0 127 0" result="hardAlpha"/>
<feOffset dy="9.14667"/>
<feGaussianBlur stdDeviation="13.72"/>
<feColorMatrix type="matrix" values="0 0 0 0 0.0571591 0 0 0 0 0.186582 0 0 0 0 0.437815 0 0 0 0.2 0"/>
<feBlend mode="normal" in2="BackgroundImageFix" result="effect1_dropShadow_2227_3570"/>
<feBlend mode="normal" in="SourceGraphic" in2="effect1_dropShadow_2227_3570" result="shape"/>
</filter>
</defs>
</svg>
