<svg width="15" height="16" viewBox="0 0 15 16" fill="none" xmlns="http://www.w3.org/2000/svg">
<path d="M8.45034 2.9273C8.45109 2.10877 6.78205 1.4458 4.72554 1.4458C2.66904 1.4458 1.00149 2.10951 1 2.9273M1 2.9273C1 3.74583 2.66755 4.4088 4.72554 4.4088C6.78354 4.4088 8.45109 3.74583 8.45109 2.9273L8.45109 8.67545M1 2.9273V11.8162C1.00075 12.6348 2.6683 13.2977 4.72555 13.2977C5.72325 13.2977 6.62408 13.1399 7.29245 12.8859M1.00075 5.89028C1.00075 6.70881 2.6683 7.37178 4.72629 7.37178C6.78428 7.37178 8.45184 6.70881 8.45184 5.89028M7.33715 9.90888C6.66506 10.1718 5.74336 10.3348 4.72555 10.3348C2.6683 10.3348 1.00075 9.67184 1.00075 8.85331M12.6848 9.08889C13.994 10.3904 13.994 12.5015 12.6848 13.803C11.3756 15.1045 9.25208 15.1045 7.94293 13.803C6.63377 12.5015 6.63377 10.3904 7.94293 9.08889C9.25208 7.7874 11.3756 7.7874 12.6848 9.08889Z" stroke="#667085" stroke-linecap="round" stroke-linejoin="round"/>
</svg>
